<svg width="290" height="46" viewBox="0 0 290 46" fill="none" xmlns="http://www.w3.org/2000/svg">
<path d="M271.818 0.906006L18.121 0V0.906006C8.155 2.71801 0 11.779 0 22.651C0 35.336 9.967 45.303 22.652 45.303C33.525 45.303 42.585 37.148 44.397 27.182H81.545C81.545 37.149 91.512 45.303 104.197 45.303C116.882 45.303 126.849 37.148 126.849 27.182H163.091C163.091 37.149 173.058 45.303 185.743 45.303C198.428 45.303 208.395 37.148 208.395 27.182H245.543C247.355 37.149 256.416 45.303 267.288 45.303C279.973 45.303 289.939 35.336 289.939 22.651C289.939 11.778 281.785 2.71801 271.818 0.906006Z" fill="#3DB39E"/>
<path d="M0.906 28.088C0.906 28.994 1.812 29.9 1.812 30.806C1.812 31.712 1.812 31.712 2.718 32.618C2.718 33.524 3.624 34.43 3.624 34.43C3.624 35.336 4.53 35.336 4.53 36.242C5.436 37.148 5.436 37.148 6.342 38.054L7.248 38.96C8.154 39.866 8.154 39.866 9.06 40.772L9.966 41.678C10.872 42.584 11.778 42.584 12.684 42.584C13.59 42.584 13.59 43.49 14.496 43.49C15.402 43.49 16.308 44.396 18.12 44.396H19.026C19.932 45.302 20.838 45.302 22.65 45.302C26.274 45.302 28.992 44.396 31.711 43.49C23.556 39.866 18.12 31.711 18.12 22.651C18.12 11.778 26.275 2.71801 36.241 0.906006V0H18.121V0.906006C8.155 2.71801 0 11.779 0 22.651C0 24.463 0 25.369 0 27.181C0.906 27.182 0.906 28.088 0.906 28.088Z" fill="#37A18E"/>
</svg>
