<svg width="290" height="109" viewBox="0 0 290 109" fill="none" xmlns="http://www.w3.org/2000/svg">
<path d="M9.06 108.728H27.181C21.745 108.728 18.12 105.104 18.12 99.667V90.606C18.12 42.585 68.859 3.624 144.968 0C142.25 0 138.626 0 135.907 0C55.269 0.001 0 40.773 0 90.607V99.668C0 105.104 3.624 108.728 9.06 108.728Z" fill="#C69D63"/>
<path d="M153.909 0C73.269 0 18 40.772 18 90.606V99.667C18 105.103 21.624 108.728 27.061 108.728H280.758C286.194 108.728 289.819 105.104 289.819 99.667V90.606C289.818 40.772 234.548 0 153.909 0Z" fill="#DDAF6D"/>
</svg>
